<svg xmlns="http://www.w3.org/2000/svg" version="1.1" viewBox="-5.0 -10.0 110.0 135.0">
 <g>
  <path d="m35.047 64.91h-22.562c-0.60547 0-1.0898 0.48438-1.0898 1.0898s0.48438 1.0898 1.0898 1.0898h22.562c0.60547 0 1.0898-0.48438 1.0898-1.0898s-0.48438-1.0898-1.0898-1.0898z"/>
  <path d="m12.484 74.984h19.438c0.60547 0 1.0898-0.48438 1.0898-1.0898s-0.48438-1.0898-1.0898-1.0898h-19.438c-0.60547 0-1.0898 0.48437-1.0898 1.0898s0.48438 1.0898 1.0898 1.0898z"/>
  <path d="m35.047 80.695h-22.562c-0.60547 0-1.0898 0.48438-1.0898 1.0898 0 0.60547 0.48438 1.0898 1.0898 1.0898h22.562c0.60547 0 1.0898-0.48438 1.0898-1.0898 0-0.60156-0.48438-1.0898-1.0898-1.0898z"/>
  <path d="m12.484 12.152c-0.41016-0.16797-0.87891-0.0625-1.1797 0.24219-0.10938 0.089844-0.18359 0.22656-0.24219 0.34766-0.0625 0.13672-0.09375 0.28906-0.09375 0.42578 0 0.15234 0.03125 0.27344 0.089844 0.41016 0.0625 0.13281 0.13672 0.25391 0.24609 0.35938 0.19531 0.19531 0.48437 0.31641 0.77344 0.31641s0.5625-0.12109 0.77344-0.31641c0.085938-0.12109 0.17969-0.22656 0.23828-0.36328 0.046875-0.13672 0.074218-0.25781 0.074218-0.41016 0-0.28906-0.12109-0.5625-0.31641-0.77344-0.089844-0.085937-0.22656-0.17969-0.36328-0.23828z"/>
  <path d="m18.742 12.395c-0.30469-0.30469-0.78906-0.41016-1.1953-0.24219-0.13672 0.0625-0.24219 0.15234-0.34766 0.24219-0.19531 0.19531-0.31641 0.48438-0.31641 0.77344 0 0.15234 0.03125 0.27344 0.089844 0.41016 0.0625 0.13672 0.13672 0.24219 0.22656 0.36328 0.19531 0.19531 0.48438 0.31641 0.77344 0.31641 0.28906 0 0.5625-0.12109 0.77344-0.31641 0.10547-0.10547 0.18359-0.22656 0.24219-0.36328 0.046875-0.13672 0.074219-0.25781 0.074219-0.41016 0-0.15234-0.03125-0.28906-0.089844-0.42578-0.046875-0.12109-0.125-0.25781-0.23047-0.34766z"/>
  <path d="m24.289 12.152c-0.25781-0.10547-0.5625-0.10547-0.83203 0-0.15234 0.0625-0.25781 0.15234-0.36328 0.24219-0.19531 0.19531-0.31641 0.48438-0.31641 0.77344 0 0.15234 0.03125 0.27344 0.089844 0.41016 0.0625 0.13672 0.13672 0.24219 0.22656 0.36328 0.10547 0.10547 0.22656 0.18359 0.36328 0.22656 0.13672 0.0625 0.25781 0.089843 0.41016 0.089843 0.28906 0 0.5625-0.12109 0.77344-0.31641 0.10547-0.12109 0.19531-0.22656 0.24219-0.36328 0.046876-0.13672 0.074219-0.25781 0.074219-0.41016 0-0.28906-0.12109-0.5625-0.31641-0.77344-0.078125-0.089843-0.21484-0.18359-0.35156-0.24219z"/>
  <path d="m77.848 12.074h-38.484c-0.60547 0-1.0898 0.48438-1.0898 1.0898 0 0.60547 0.48437 1.0898 1.0898 1.0898h38.469c0.60547 0 1.0898-0.48438 1.0898-1.0898 0.003906-0.60156-0.48438-1.0898-1.0742-1.0898z"/>
  <path d="m97.621 50.195c0-3.4375-2.8047-6.2422-6.2422-6.2422h-1.0742v-24.758c0-0.015624-0.015626-0.03125-0.015626-0.046874v-5.8906c0-3.9688-3.2266-7.1953-7.1953-7.1953h-73.504c-3.9688 0-7.1953 3.2266-7.1953 7.1953v5.9258 0.015625 67.562c0 3.9688 3.2266 7.1953 7.1953 7.1953h73.516c3.9688 0 7.2109-3.2266 7.2109-7.1953v-3.8828h1.0742c1.5469 0 3.0312-0.57422 4.1367-1.5898 0.0625-0.046874 0.10547-0.12109 0.16797-0.18359 1.2266-1.1523 1.9375-2.7578 1.9375-4.4688l0.003907-26.441zm-2.1836 0v26.453c0 0.68359-0.18359 1.332-0.5 1.9102l-12.227-20.621c-0.75781-1.2891-2.1055-2.0625-3.5898-2.0625h-0.015625c-1.5 0-2.8477 0.77344-3.6055 2.0625l-9 15.195-7.0312-11.879c-0.75781-1.2891-2.1055-2.0625-3.6055-2.0625s-2.8477 0.77344-3.6055 2.0625l-10.242 17.316c-0.31641-0.57422-0.5-1.2266-0.5-1.9102v-26.465c0-2.2422 1.8164-4.0625 4.0625-4.0625h45.832c2.2109 0.003907 4.0273 1.8203 4.0273 4.0625zm-49.891 30.5c-0.69531 0-1.3633-0.19531-1.9688-0.53125l10.547-17.805c0.74219-1.2422 2.7266-1.2422 3.4531 0l7.6367 12.91-3.2266 5.4375-16.441 0.003907zm33.559-36.742h-33.559c-3.4375 0-6.2422 2.8047-6.2422 6.2422v5.7109l-23.23 0.003906c-1.3789 0-2.5-1.1211-2.5-2.5156v-21.605c0-1.3945 1.1211-2.5156 2.5-2.5156h60.531c1.3789 0 2.5 1.1211 2.5 2.5156zm-74.543-30.695c0-2.7734 2.2578-5.0156 5.0156-5.0156h73.5c2.7734 0 5.0156 2.2578 5.0156 5.0156v4.8477h-83.531zm83.559 73.5c0 2.7734-2.2578 5.0156-5.0312 5.0156h-73.516c-2.7734 0-5.0156-2.2578-5.0156-5.0156l0.003906-66.484h83.562v23.684h-6.832v-12.168c0-2.5898-2.1055-4.6953-4.6836-4.6953l-60.535-0.003906c-2.5742 0-4.6836 2.1055-4.6836 4.6953v21.59c0 2.5898 2.1055 4.6953 4.6836 4.6953h23.227v18.562c0 1.8047 0.77344 3.5 2.0742 4.6211 1.1367 1.0469 2.6055 1.6055 4.1523 1.6055h42.574l0.003907 3.8984zm1.1211-6.0625h-0.03125-0.03125-24.648l2.5625-4.3164 0.21094-0.34766 10.074-16.984c0.36328-0.62109 1.0156-1 1.7422-1 0.71094 0 1.3477 0.36328 1.7109 1l12.516 21.121c-0.58984 0.33203-1.2734 0.53125-1.9688 0.53125z"/>
  <path d="m66.227 61.363c3.2266 0 5.8633-2.6367 5.8633-5.8633s-2.6367-5.8633-5.8633-5.8633c-3.2422 0-5.8789 2.6367-5.8789 5.8633s2.6367 5.8633 5.8789 5.8633zm0-9.5469c2.0312 0 3.6836 1.6523 3.6836 3.6836s-1.6523 3.6836-3.6836 3.6836-3.6953-1.6523-3.6953-3.6836 1.6523-3.6836 3.6953-3.6836z"/>
 </g>
<text x="0.0" y="117.5" font-size="5.0" font-weight="bold" font-family="Arbeit Regular, Helvetica, Arial-Unicode, Arial, Sans-serif" fill="#000000">Created by Candy Design</text><text x="0.0" y="122.5" font-size="5.0" font-weight="bold" font-family="Arbeit Regular, Helvetica, Arial-Unicode, Arial, Sans-serif" fill="#000000">from Noun Project</text></svg>