<svg xmlns="http://www.w3.org/2000/svg" viewBox="0 0 96 120" x="0px" y="0px"><path d="M94.728,75.499c-.601-3.32-2.184-6.341-4.578-8.735-3.904-3.904-9.474-5.598-14.9-4.53-1.012,.2-1.933-.081-2.662-.811l-15.554-15.554,19.615-19.615,6.536-1.392c.234-.05,.442-.186,.581-.381l9.122-12.783c.272-.381,.229-.904-.102-1.235l-7.249-7.249c-.332-.331-.854-.375-1.235-.102l-12.782,9.122c-.195,.139-.331,.346-.381,.581l-1.392,6.536-19.615,19.615-15.554-15.554c-.73-.73-1.01-1.65-.811-2.663,1.068-5.425-.626-10.995-4.53-14.9-2.394-2.394-5.415-3.977-8.735-4.578-3.243-.587-6.549-.204-9.56,1.105-.291,.127-.5,.389-.56,.701-.059,.312,.04,.633,.264,.857l8.642,8.64-1.419,5.295-5.295,1.419L3.935,10.645c-.224-.224-.545-.323-.857-.264-.312,.059-.574,.269-.701,.56-1.31,3.011-1.692,6.317-1.105,9.56,.601,3.32,2.184,6.341,4.578,8.735,3.904,3.904,9.474,5.598,14.9,4.53,1.012-.199,1.933,.081,2.663,.811l12.405,12.405c-.315,.195-.617,.417-.89,.69-.919,.919-1.425,2.145-1.425,3.452,0,.207,.034,.406,.059,.608-2.848,2.021-4.921,2.77-9.048,3.305-.21,.027-.405,.123-.555,.273L6.385,72.882c-4.613,4.613-4.613,12.119,0,16.732,2.226,2.226,5.197,3.452,8.366,3.452s6.14-1.226,8.366-3.452l17.573-17.573c.15-.15,.246-.345,.273-.555,.535-4.127,1.284-6.2,3.305-9.048,.202,.025,.402,.059,.608,.059,1.307,0,2.533-.506,3.452-1.425,.273-.273,.496-.575,.69-.89l12.405,12.405c.729,.729,1.01,1.65,.811,2.663-1.068,5.425,.626,10.995,4.53,14.9,2.394,2.394,5.415,3.978,8.735,4.578,.988,.179,1.982,.268,2.972,.268,2.258,0,4.494-.462,6.587-1.373,.291-.127,.5-.389,.56-.701,.059-.312-.04-.633-.264-.857l-8.642-8.639,1.419-5.295,5.295-1.419,8.64,8.642c.224,.224,.545,.323,.857,.264,.312-.059,.574-.269,.701-.56,1.31-3.011,1.692-6.317,1.105-9.56Zm-23.425-54.993c.131-.131,.221-.297,.26-.478l1.373-6.449,11.818-8.434,6.101,6.101-8.434,11.818-6.449,1.374c-.181,.039-.347,.129-.478,.26l-28.319,28.319-4.191-4.191,28.319-28.319Zm-46.535,12.714c-1.185-1.185-2.744-1.66-4.389-1.336-4.797,.944-9.721-.553-13.173-4.004-3.936-3.936-5.271-9.625-3.58-14.83l7.983,7.985c.242,.242,.596,.337,.926,.248l6.365-1.705c.331-.089,.589-.347,.678-.678l1.705-6.364c.089-.331-.006-.684-.248-.926L13.05,3.626c5.204-1.691,10.894-.356,14.83,3.58,3.452,3.451,4.948,8.376,4.005,13.173-.324,1.645,.151,3.204,1.336,4.389l15.554,15.554-7.167,7.167c-1.064-.944-2.432-1.34-3.764-1.194l-13.075-13.075Zm-3.007,55.038c-1.864,1.864-4.353,2.891-7.01,2.891s-5.146-1.027-7.01-2.891c-3.865-3.865-3.865-10.154,0-14.02l16.895-16.895,14.02,14.02-16.895,16.895Zm17.586-18.916l-12.69-12.69c3.087-.544,5.119-1.372,7.548-3.029,.204,.34,.435,.664,.721,.951l6.498,6.498c.287,.287,.612,.518,.951,.721-1.657,2.429-2.484,4.462-3.029,7.548Zm7.624-9.626c-1.155,1.155-3.035,1.155-4.19,0l-6.498-6.498c-1.155-1.155-1.155-3.035,0-4.191,.578-.578,1.336-.867,2.095-.867s1.518,.289,2.095,.867l6.498,6.498c1.155,1.155,1.155,3.035,0,4.191Zm45.402,23.233l-7.983-7.986c-.242-.242-.595-.337-.926-.248l-6.364,1.705c-.331,.089-.589,.347-.678,.678l-1.705,6.365c-.089,.331,.006,.684,.248,.926l7.986,7.983c-5.205,1.691-10.894,.356-14.83-3.58-3.452-3.451-4.948-8.376-4.004-13.173,.324-1.645-.151-3.204-1.336-4.389l-13.075-13.075c.146-1.331-.25-2.7-1.194-3.763l7.167-7.167,15.554,15.554c1.185,1.185,2.745,1.661,4.389,1.336,4.797-.944,9.721,.553,13.173,4.004,3.936,3.936,5.271,9.625,3.58,14.83ZM41.565,42.921l-12.15-12.15c-.375-.375-.375-.982,0-1.356,.375-.374,.982-.374,1.356,0l12.15,12.15c.375,.375,.375,.982,0,1.356-.187,.187-.433,.281-.678,.281s-.491-.094-.678-.281Zm25.021,22.308c.375,.375,.375,.982,0,1.356-.187,.187-.433,.281-.678,.281s-.491-.094-.678-.281l-12.15-12.15c-.375-.375-.375-.982,0-1.356,.375-.374,.982-.374,1.356,0l12.15,12.15Zm-35.717,6.384l-12.443,12.443c-.187,.187-.433,.281-.678,.281s-.491-.094-.678-.281c-.375-.375-.375-.982,0-1.356l12.443-12.443c.375-.374,.982-.374,1.356,0,.375,.375,.375,.982,0,1.356Zm-5.125-5.125l-12.443,12.443c-.187,.187-.433,.281-.678,.281s-.491-.094-.678-.281c-.375-.375-.375-.982,0-1.356l12.443-12.443c.375-.374,.982-.374,1.356,0,.375,.375,.375,.982,0,1.356Z"/><text x="0" y="111" fill="#000000" font-size="5px" font-weight="bold" font-family="'Helvetica Neue', Helvetica, Arial-Unicode, Arial, Sans-serif">Created by Nuricon</text><text x="0" y="116" fill="#000000" font-size="5px" font-weight="bold" font-family="'Helvetica Neue', Helvetica, Arial-Unicode, Arial, Sans-serif">from the Noun Project</text></svg>